# xmcd
#
# Track frame offsets: 
#        150
#        15383
#        32339
#        49083
#        64850
#        82824
#        99676
#        116791
#        131404
#        147033
#        162206
#        181740
#        199997
#        221032
#
# Disc length: 3148 seconds
#
# Revision: 0
# Processed by: cddbd v1.5.2PL0 Copyright (c) Steve Scherf et al.
# Submitted via: ExactAudioCopy v1.1
#
DISCID=b80c4a0e
DTITLE=High South - High South
DYEAR=2014
DGENRE=Country
TTITLE0=Rock star
TTITLE1=Just one
TTITLE2=Honestly
TTITLE3=Sunrise over Sunset Boulevard
TTITLE4=Till the wheels fall off
TTITLE5=Fine wine
TTITLE6=For the first time
TTITLE7=How high will you take me
TTITLE8=Endlessly
TTITLE9=I'd give my life for you
TTITLE10=Bootwork
TTITLE11=I won't give up
TTITLE12=Wild horses
TTITLE13=Crying in the rain
EXTD=
EXTT0=
EXTT1=
EXTT2=
EXTT3=
EXTT4=
EXTT5=
EXTT6=
EXTT7=
EXTT8=
EXTT9=
EXTT10=
EXTT11=
EXTT12=
EXTT13=
PLAYORDER=
